<svg xmlns="http://www.w3.org/2000/svg" width="64" height="64"><path fill="#FFF" d="M61 19H35V3a2 2 0 00-2-2H3a2 2 0 00-2 2v56a2 2 0 002 2h58a2 2 0 002-2V21a2 2 0 00-2-2z"/><path fill="#777" d="M46 32c-6.624 0-11.993 5.373-11.993 12 0 6.628 5.37 12 11.993 12s11.993-5.372 11.993-12c0-6.627-5.369-12-11.993-12zm0 19.988c-4.41 0-7.984-3.576-7.984-7.988S41.59 36.012 46 36.012s7.984 3.576 7.984 7.988S50.41 51.988 46 51.988z"/><path fill="#FFC20E" d="M1 25h28v-2H1v2zm43.707 17.707l5-5-1.414-1.414-5 5a1 1 0 101.414 1.414zM33 27h5v-4h-5v4zm19.293 13.293l-3 3a1 1 0 101.414 1.414l3-3-1.414-1.414zm-1-3l-7 7a1 1 0 101.414 1.414l7-7-1.414-1.414z"/><path fill="#323232" d="M7 30a1 1 0 00-1 1v8a1 1 0 102 0v-8a1 1 0 00-1-1zm39 27c7.18 0 13-5.82 13-13s-5.82-13-13-13-13 5.82-13 13 5.82 13 13 13zm0-24c6.075 0 11 4.925 11 11s-4.925 11-11 11-11-4.925-11-11 4.925-11 11-11zm14-15H36V4a4 4 0 00-4-4H4a4 4 0 00-4 4v54a4 4 0 004 4v1a1 1 0 102 0v-1h26v1a1 1 0 102 0v-1h24v1a1 1 0 102 0v-1a4 4 0 004-4V22a4 4 0 00-4-4zm-19 2v6h-2v-2a2 2 0 00-2-2h-3a2 2 0 00-2 2v2h-2v-4a2 2 0 012-2h9zm-4 4v2h-3v-2h3zm-8.445 36H4a2 2 0 01-2-2V4a2 2 0 012-2h28a2 2 0 012 2v14h-2a4 4 0 00-4 4v36c0 .732.211 1.409.555 2zM62 58a2 2 0 01-2 2H32a2 2 0 01-2-2V28h32v30zm0-32H43v-6h17a2 2 0 012 2v4zM46 53c4.971 0 9-4.029 9-9s-4.029-9-9-9-9 4.029-9 9 4.029 9 9 9zm0-16a7 7 0 110 14 7 7 0 010-14zm12-15a1 1 0 100 2 1 1 0 000-2zM7 8a1 1 0 00-1 1v8a1 1 0 102 0V9a1 1 0 00-1-1z"/></svg>