<svg height="64" viewBox="0 0 512 512" width="64" xmlns="http://www.w3.org/2000/svg"><path d="M115.438 124.5c-3.85 0-6.938-3.621-6.938-7.471v-51c0-3.85 2.838-7.012 6.688-7.027l1.093-.004c3.85-.015 7.218 3.123 7.218 6.973v51c0 3.85-3.118 6.529-6.968 7.529h-1.093zM209.416 124.5c-3.85 0-6.916-3.621-6.916-7.471v-51c0-3.85 2.816-7.012 6.667-7.027l1.104-.004c3.85-.015 7.229 3.123 7.229 6.973v51c0 3.85-3.129 6.529-6.979 7.529h-1.105zM302.583 124.5c-3.85 0-7.083-3.621-7.083-7.471v-51c0-3.85 2.983-7.012 6.833-7.027l1.021-.004c3.85-.015 7.146 3.123 7.146 6.973v51c0 3.85-3.046 6.529-6.896 7.529h-1.021zM396.5 124.5c-3.85 0-7-3.621-7-7.471v-51c0-3.85 2.9-7.012 6.75-7.027l1.062-.004c3.85-.015 7.188 3.123 7.188 6.973v51c0 3.85-3.087 6.529-6.938 7.529H396.5z" fill="#333"/><path d="M464.5 86.5h-45v30.664a22.197 22.197 0 01-6.437 15.665c-4.144 4.175-9.71 6.671-15.579 6.671h-1.003c-12.082 0-21.981-10.062-21.981-22.144V86.5h-49v30.664c0 12.131-9.748 22.336-21.879 22.336h-1.072c-12.086 0-22.049-10.049-22.049-22.133V86.5h-48v30.664c0 12.131-9.916 22.336-22.046 22.336h-.989c-12.085 0-21.965-10.049-21.965-22.133V86.5h-49v30.664c0 5.869-2.356 11.49-6.499 15.665-4.143 4.175-9.741 6.671-15.61 6.671h-.988c-12.085 0-21.903-10.064-21.903-22.148V86.5H48.499c-16.5 0-30.999 12.5-30.999 29v307c0 16.5 14.499 31 30.999 31h321.43c6.85 0 14.148-1.915 18.304-5.941l96.075-70.744c5.564-5.063 9.191-12.064 9.191-20.314V115.5C493.5 99 481 86.5 464.5 86.5zm-79 343.091v-45.425c0-8.132 7.619-13.666 14.913-13.666h68.491L385.5 429.591zm93-74.091h-78.087c-16.125 0-29.913 12.452-29.913 28.666V438.5h-322c-8.271 0-16-7.729-16-16v-249h446v182z" fill="#333"/><g fill="#333"><path d="M277.5 370.5h63v38h-63zM62.5 370.5h63v38h-63zM170.5 203.5h62v39h-62zM277.5 287.5h63v38h-63zM169.5 287.5h63v38h-63zM62.5 287.5h63v38h-63zM385.5 287.5h63v38h-63zM385.5 203.5h63v39h-63zM62.5 203.5h63v39h-63z"/></g><path d="M310.5 188c-20.987 0-38 17.013-38 38s17.013 38 38 38 38-17.013 38-38-17.013-38-38-38zm-1.854 59.785l-.08-.252-24.846-19.802 4.072-5.229 20.667 16.096 24.663-24.663 4.687 4.687-29.163 29.163zM201.5 350.5c-20.987 0-38 17.013-38 38s17.013 38 38 38 38-17.013 38-38-17.013-38-38-38zm-1.854 59.785l-.08-.252-24.846-19.802 4.072-5.229 20.667 16.096 24.663-24.663 4.687 4.687-29.163 29.163z" fill="#ffc20e"/></svg>