<svg xmlns="http://www.w3.org/2000/svg" width="64" height="64" viewBox="0 0 375.914 375.914"><path d="M241.791 243.096c-4.525 0-8.467 2.827-10.566 7.014v-.637c0-8.77-6.221-15.877-13.896-15.877-5.288 0-9.883 3.373-12.231 8.338-2.349-4.965-6.946-8.338-12.233-8.338-4.23 0-8.017 2.168-10.566 5.579v-49.243c0-8.77-6.222-15.877-13.897-15.877s-13.896 7.108-13.896 15.877v96.816l-6.475-13.496c-2.525-5.266-7.284-8.255-12.195-8.255-2.259 0-4.552.634-6.673 1.958-6.727 4.22-9.195 13.865-5.5 21.554 0 0 32.409 68.042 37.408 75.376 4.806 7.049 10.732 12.029 18.955 12.029h48.251c14.188 0 25.697-13.629 25.697-30.432v-88.476c-.004-7.682-5.457-13.91-12.183-13.91z" stroke="#ffc20e" fill="#ffc20e"/><path d="M281.949 0H93.964c-11.672 0-21.16 9.492-21.16 21.162v308.975c0 11.666 9.488 21.162 21.16 21.162h34.872s6.748 0 4.241-5.713c-3.994-9.104-10.474-22.357-15.285-31.863-2.291-4.527-8.126-4.343-8.126-4.343H96.011c-2.76 0-5.022-2.31-5.022-5.133V47.503c0-2.823 2.263-5.132 5.022-5.132h183.896c2.76 0 5.021 2.309 5.021 5.132v256.744c0 2.823-2.262 5.133-5.021 5.133h-5.236s-6.526.147-6.526 8.005c0 6.477-.025 25.525-.025 25.908 0 8.005 7.554 8.005 7.554 8.005h6.278c11.664 0 21.159-9.495 21.159-21.161V21.163C303.109 9.492 293.613 0 281.949 0zm-70.805 29.605H164.77a4.006 4.006 0 01-4.008-4.009 4.006 4.006 0 014.008-4.012h46.375a4.01 4.01 0 01-.001 8.021z"/></svg>