<svg xmlns="http://www.w3.org/2000/svg" width="64" height="64"><path fill="#FFF" d="M61 22H3c-1.1 0-2 .9-2 2v14c0 1.1.9 2 2 2h4v2h50v-2h4c1.1 0 2-.9 2-2V24c0-1.1-.9-2-2-2z"/><path fill="#FFC20E" d="M7 38h50v4H7z"/><path fill="#323232" d="M7 33c-.6 0-1 .4-1 1s.4 1 1 1 1-.4 1-1-.4-1-1-1zm4 0c-.6 0-1 .4-1 1s.4 1 1 1 1-.4 1-1-.4-1-1-1zm49-12H4c-2.2 0-4 1.8-4 4v12c0 2.2 1.8 4 4 4h2v1c0 .6.4 1 1 1h50c.6 0 1-.4 1-1v-1h2c2.2 0 4-1.8 4-4V25c0-2.2-1.8-4-4-4zm-4 20H8v-2h48v2zm6-4c0 1.1-.9 2-2 2h-2v-1c0-.6-.4-1-1-1H7c-.6 0-1 .4-1 1v1H4c-1.1 0-2-.9-2-2V25c0-1.1.9-2 2-2h56c1.1 0 2 .9 2 2v12zm-4-10.9l-2 1.1V25h-2v2.3l-2-1.1-1 1.7 2 1.1-2 1.1 1 1.7 2-1.1V33h2v-2.3l2 1.1 1-1.7-2-1.1 2-1.1-1-1.8z"/><path fill="#777" d="M37 19c.6 0 1-.4 1-1V3c0-.6-.4-1-1-1s-1 .4-1 1v15c0 .6.4 1 1 1zM20 48v-2c0-.6-.4-1-1-1s-1 .4-1 1v2c0 3.3-2.7 6-6 6-.6 0-1 .4-1 1s.4 1 1 1c4.4 0 8-3.6 8-8zm25-31c.6 0 1-.4 1-1V1c0-.6-.4-1-1-1s-1 .4-1 1v15c0 .6.4 1 1 1zm-26 0c.6 0 1-.4 1-1V1c0-.6-.4-1-1-1s-1 .4-1 1v15c0 .6.4 1 1 1zm28 45c-5 0-9-4-9-9v-5c0-.6-.4-1-1-1s-1 .4-1 1v5c0 6.1 4.9 11 11 11 .6 0 1-.4 1-1s-.4-1-1-1zm5-8c-3.3 0-6-2.7-6-6v-2c0-.6-.4-1-1-1s-1 .4-1 1v2c0 4.4 3.6 8 8 8 .6 0 1-.4 1-1s-.4-1-1-1zM27 2c-.6 0-1 .4-1 1v15c0 .6.4 1 1 1s1-.4 1-1V3c0-.6-.4-1-1-1zm0 45c-.6 0-1 .4-1 1v5c0 5-4 9-9 9-.6 0-1 .4-1 1s.4 1 1 1c6.1 0 11-4.9 11-11v-5c0-.6-.4-1-1-1z"/></svg>