<svg xmlns="http://www.w3.org/2000/svg" width="64" height="64"><path fill="#FFF" d="M48 29H37c-.6 0-1-.4-1-1v-.2l5-19.1L16 35h11c.6 0 1 .4 1 1v.2l-5 19.1L48 29z"/><path fill="#323232" d="M49 29c0-.6-.4-1-1-1H37.3L43 7.2V7c0-.6-.4-1-1-1-.3 0-.5.1-.7.3l-26 28c-.2.2-.3.4-.3.7 0 .6.4 1 1 1h10.7L21 56.8v.2c0 .6.4 1 1 1 .3 0 .5-.1.7-.3l26-28c.2-.2.3-.4.3-.7zM24 53.3l5-18.1V35c0-.6-.4-1-1-1h-9.7L40 10.7l-5 18.1v.2c0 .6.4 1 1 1h9.7L24 53.3z"/><path fill="#FFC20E" d="M10 32c0-.6-.4-1-1-1H1c-.6 0-1 .4-1 1s.4 1 1 1h8c.6 0 1-.4 1-1zm44.5-9.1l6-3c.5-.3.6-.9.4-1.4s-.9-.6-1.4-.4l-6 3c-.5.3-.6.9-.4 1.4s.9.6 1.4.4zm-45 18.2l-6 3c-.5.3-.6.9-.4 1.4s.9.6 1.4.4l6-3c.5-.3.6-.9.4-1.4s-.9-.6-1.4-.4zm1-20l-6-3c-.5-.2-1.1-.1-1.4.4s-.1 1.1.4 1.4l6 3c.5.3 1.1.1 1.4-.4s.1-1.1-.4-1.4zM63 31h-8c-.6 0-1 .4-1 1s.4 1 1 1h8c.6 0 1-.4 1-1s-.4-1-1-1zm-2.5 13.1l-6-3c-.5-.3-1.1-.1-1.4.4s-.1 1.1.4 1.4l6 3c.5.3 1.1.1 1.4-.4s.1-1.1-.4-1.4z"/></svg>