<svg xmlns="http://www.w3.org/2000/svg" width="64" height="64"><circle fill="#FFF" cx="32" cy="32" r="28"/><path fill="#FFC20E" d="M32 1C15.4 1 1 15.4 1 32s14.4 31 31 31 31-14.4 31-31S48.6 1 32 1zM7 32C7 17.6 17.6 7 32 7c6.5 0 11.4 1.4 15.9 5.3L12.3 47.9C8.4 43.4 7 38.5 7 32zm25 25c-6.5 0-11.4-1.4-15.9-5.3l35.6-35.6C55.6 20.6 57 25.5 57 32c0 14.4-10.6 25-25 25z"/><path fill="#323232" d="M51.7 15.1L15.1 51.7C19.6 55.6 25.5 58 32 58c14.4 0 26-11.6 26-26 0-6.5-2.4-12.4-6.3-16.9zM33 36.7l6.7-6.7h1c.2 1 .3 2 .3 3 0 5.7-3.5 10.3-8 10.9v-7.2zm-2 2V44c-.4-.1-.9-.2-1.3-.3-.9-.3-1.6-.7-2.4-1.3l3.7-3.7zM32 56c-5.2 0-10-1.7-13.9-4.4l7.8-7.8c1.4 1.1 3.1 1.9 4.9 2.1h.1c.4 0 .7.1 1.1.1 2.7 0 5.1-1.1 7-3h1c2.2 0 4 1.8 4 4 0 .6.4 1 1 1s1-.4 1-1c0-3.1-2.4-5.6-5.4-5.9 1.3-2 2.2-4.4 2.3-7.1 2.2 0 4 1.8 4 4 0 .6.4 1 1 1s1-.4 1-1c0-3.3-2.7-6-6-6-.1-1.5-.4-3-1-4.3l2.1-2.1c1.2.7 1.9 2 1.9 3.4 0 .6.4 1 1 1s1-.4 1-1c0-2-1-3.8-2.5-4.8l6-6C54.3 22 56 26.8 56 32c0 13.3-10.7 24-24 24zm0-56C14.3 0 0 14.3 0 32s14.3 32 32 32 32-14.3 32-32S49.7 0 32 0zm0 62C15.4 62 2 48.6 2 32S15.4 2 32 2s30 13.4 30 30-13.4 30-30 30zm0-56C17.6 6 6 17.6 6 32c0 6.5 2.4 12.4 6.3 16.9l36.6-36.6C44.4 8.4 38.5 6 32 6zm0 2h.2c1.3 3 2.8 8.3 2.8 12.5-1-.3-2-.5-3-.5s-2.1.2-3 .5c-.1-4.3-1.7-9-3.1-11.7 1.9-.5 4-.8 6.1-.8zM12.4 45.9C9.7 42 8 37.2 8 32c0-10.4 6.7-19.3 16-22.6 1.4 2.4 3 7 3 11.6 0 .1 0 .3.1.4-.9.5-1.6 1.2-2.4 1.9-.1.1-.2.1-.2.2-.8-.3-1.6-.5-2.5-.5-3.3 0-6 2.7-6 6 0 .6.4 1 1 1s1-.4 1-1c0-2.2 1.8-4 4-4 .4 0 .8.1 1.2.2-1.2 1.9-2 4.3-2.2 6.8-3.3 0-6 2.7-6 6 0 .6.4 1 1 1s1-.4 1-1c0-2.2 1.8-4 4-4 .1 1 .2 1.9.5 2.8l-9.1 9.1zm10.8-10.7c-.1-.7-.2-1.5-.2-2.2 0-1 .1-2 .3-3h5l-5.1 5.2zm7.1-7.2H24c1.6-3.5 4.5-6 8-6 1.2 0 2.4.3 3.5.9L30.3 28zm6.6-6.6c0-.1.1-.3.1-.4 0-4.2-1.3-9.6-2.6-12.9 4.3.4 8.2 2 11.5 4.3l-9 9z"/></svg>