<svg xmlns="http://www.w3.org/2000/svg" height="64" viewBox="0 0 512 512" width="64" fill="#ffc20d"><path d="M181.022 142.59l-8.659 3.138c-13.364 4.846-23.334 16.536-26.021 30.517l-2.938 15.396a25.864 25.864 0 005.479 21.425 25.89 25.89 0 0020.025 9.433h75.057a25.918 25.918 0 0019.927-9.309 25.894 25.894 0 005.646-21.233l-2.74-15.315c-2.539-14.201-12.542-26.081-26.108-31.004l-9.18-3.327v-13.53c0-.38-.037-.75-.092-1.115 6.697-6.818 10.533-16.115 10.533-25.627V81.88c0-19.678-16.01-35.687-35.689-35.687S170.57 62.202 170.57 81.88v20.787c0 9.778 4.032 18.705 10.515 25.188a7.432 7.432 0 00-.063.925zm71.008 36.692l2.74 15.317a10.927 10.927 0 01-2.384 8.964 10.957 10.957 0 01-8.423 3.935h-75.057a10.938 10.938 0 01-8.461-3.985 10.923 10.923 0 01-2.311-9.05l2.938-15.396c1.693-8.812 7.979-16.183 16.4-19.236l5.672-2.055c.142.146.285.293.439.428 6.463 5.651 14.57 8.477 22.682 8.476 8.102 0 16.207-2.82 22.671-8.46.233-.203.447-.422.651-.65l5.983 2.169c8.554 3.102 14.86 10.59 16.46 19.543zM185.57 81.88c0-11.406 9.281-20.687 20.689-20.687 9.628 0 17.718 6.62 20.015 15.54-.964.471-1.953.916-2.966 1.321-9.222 3.692-16.671 3.202-18.8 1.71a7.5 7.5 0 10-8.613 12.281c3.663 2.569 8.635 3.853 14.309 3.853 5.155 0 10.89-1.071 16.745-3.19v9.329c0 5.733-2.371 11.347-6.506 15.402a20.961 20.961 0 01-6.462 4.337 7.441 7.441 0 00-.486.205 19.358 19.358 0 01-7.644 1.369c-11.184-.215-20.281-9.494-20.281-20.684zm19.993 56.469a34.798 34.798 0 0010.946-1.538v11.999c-6.251 3.854-14.242 3.852-20.485-.006v-11.971a35.205 35.205 0 009.539 1.516zM88.264 350.904h233.57c4.143 0 7.5-3.357 7.5-7.5s-3.357-7.5-7.5-7.5H88.264c-4.143 0-7.5 3.357-7.5 7.5s3.357 7.5 7.5 7.5zM88.264 391.345h233.57c4.143 0 7.5-3.357 7.5-7.5s-3.357-7.5-7.5-7.5H88.264c-4.143 0-7.5 3.357-7.5 7.5s3.357 7.5 7.5 7.5zM88.264 431.784h233.57c4.143 0 7.5-3.357 7.5-7.5s-3.357-7.5-7.5-7.5H88.264c-4.143 0-7.5 3.357-7.5 7.5s3.357 7.5 7.5 7.5zM88.264 472.225h233.57c4.143 0 7.5-3.357 7.5-7.5s-3.357-7.5-7.5-7.5H88.264c-4.143 0-7.5 3.357-7.5 7.5s3.357 7.5 7.5 7.5zM80.764 262.524c0 4.143 3.357 7.5 7.5 7.5h233.57c4.143 0 7.5-3.357 7.5-7.5s-3.357-7.5-7.5-7.5H88.264a7.5 7.5 0 00-7.5 7.5zM88.264 310.464h233.57c4.143 0 7.5-3.357 7.5-7.5s-3.357-7.5-7.5-7.5H88.264c-4.143 0-7.5 3.357-7.5 7.5s3.357 7.5 7.5 7.5zM60.569 350.932a7.528 7.528 0 10.001-15.057 7.528 7.528 0 00-.001 15.057zM60.569 270.052a7.528 7.528 0 10.001-15.057 7.528 7.528 0 00-.001 15.057zM60.569 310.492a7.528 7.528 0 10.001-15.057 7.528 7.528 0 00-.001 15.057zM60.569 391.372a7.528 7.528 0 10.001-15.057 7.528 7.528 0 00-.001 15.057zM60.569 431.813a7.528 7.528 0 10.001-15.057 7.528 7.528 0 00-.001 15.057zM60.569 472.253a7.528 7.528 0 10.001-15.057 7.528 7.528 0 00-.001 15.057z"/><path d="M485.63 118.121c-3.026-3.83-5.886-7.449-7.269-10.783-1.492-3.599-2.08-8.354-2.702-13.39-1.091-8.822-2.327-18.821-9.305-25.798s-16.978-8.213-25.8-9.304c-5.037-.622-9.794-1.21-13.393-2.702-3.335-1.383-6.953-4.241-10.784-7.268-5.271-4.165-11.068-8.738-17.922-10.813v-2.269C398.456 16.058 382.397 0 362.658 0H50.214C30.475 0 14.416 16.058 14.416 35.795v28.949c0 4.143 3.357 7.5 7.5 7.5s7.5-3.357 7.5-7.5V35.795C29.416 24.328 38.746 15 50.214 15h312.444c11.468 0 20.798 9.328 20.798 20.795v2.27c-6.852 2.076-12.647 6.647-17.918 10.812-3.831 3.026-7.449 5.885-10.783 7.268-3.599 1.491-8.356 2.079-13.393 2.702-8.822 1.09-18.821 2.326-25.8 9.303-6.979 6.978-8.215 16.977-9.306 25.799-.622 5.035-1.21 9.791-2.702 13.39-1.383 3.334-4.242 6.953-7.269 10.783-5.604 7.091-11.954 15.128-11.954 25.417s6.351 18.326 11.954 25.417c3.026 3.83 5.886 7.449 7.269 10.783 1.492 3.599 2.08 8.354 2.702 13.391 1.091 8.821 2.327 18.82 9.305 25.797 6.978 6.978 16.978 8.213 25.8 9.304 2.63.325 5.179.644 7.532 1.084v113.367c0 4.443 2.48 8.411 6.473 10.355 3.992 1.947 8.645 1.453 12.146-1.288l15.943-12.483v136.94c0 11.467-9.33 20.795-20.798 20.795H50.214c-11.468 0-20.798-9.328-20.798-20.795V97.771c0-4.143-3.357-7.5-7.5-7.5s-7.5 3.357-7.5 7.5v378.434c0 19.737 16.059 35.795 35.798 35.795h312.444c19.739 0 35.798-16.058 35.798-35.795v-136.94l15.943 12.482a11.471 11.471 0 007.089 2.466c1.716 0 3.444-.389 5.064-1.178a11.437 11.437 0 006.476-10.354v-83.697c0-4.143-3.357-7.5-7.5-7.5s-7.5 3.357-7.5 7.5v76.555l-19.937-15.609c-2.015-1.595-4.549-2.474-7.136-2.474s-5.121.879-7.104 2.448l-19.959 15.627v-98.625c.544.426 1.091.857 1.645 1.294 7.092 5.604 15.13 11.953 25.42 11.953 10.289 0 18.327-6.35 25.419-11.952 3.831-3.026 7.45-5.886 10.784-7.269 3.599-1.491 8.356-2.079 13.393-2.702 8.822-1.09 18.821-2.326 25.801-9.303 6.977-6.978 8.213-16.977 9.304-25.798.623-5.036 1.211-9.792 2.703-13.391 1.383-3.334 4.242-6.953 7.269-10.783 5.604-7.091 11.954-15.128 11.954-25.417s-6.351-18.326-11.954-25.417zm-11.769 41.534c-3.528 4.465-7.176 9.081-9.355 14.337-2.273 5.48-3.016 11.487-3.734 17.296-.871 7.046-1.693 13.701-5.023 17.031-3.331 3.33-9.987 4.152-17.034 5.023-5.81.718-11.816 1.46-17.298 3.733-5.256 2.179-9.872 5.826-14.337 9.354-5.679 4.485-11.042 8.723-16.121 8.723s-10.442-4.237-16.121-8.723c-4.465-3.527-9.081-7.175-14.337-9.354a45.726 45.726 0 00-1.889-.712c-4.957-1.724-10.26-2.385-15.41-3.021-7.047-.871-13.703-1.694-17.034-5.024-3.329-3.329-4.152-9.984-5.023-17.029-.718-5.81-1.46-11.815-3.733-17.297-2.18-5.256-5.827-9.872-9.355-14.337-4.485-5.678-8.723-11.04-8.723-16.117s4.237-10.439 8.723-16.117c3.528-4.465 7.176-9.081 9.355-14.337 2.273-5.48 3.016-11.487 3.733-17.296.871-7.046 1.694-13.701 5.024-17.031 3.331-3.33 9.987-4.152 17.034-5.023 5.81-.718 11.816-1.46 17.298-3.733 5.256-2.179 9.872-5.826 14.337-9.354 5.667-4.477 11.021-8.705 16.091-8.721l.028.001.03-.001c5.071.015 10.425 4.244 16.093 8.721 4.465 3.527 9.081 7.175 14.337 9.354 5.481 2.273 11.489 3.016 17.299 3.733 7.047.871 13.703 1.694 17.033 5.024s4.153 9.984 5.024 17.03c.718 5.809 1.46 11.815 3.733 17.296 2.18 5.256 5.827 9.872 9.355 14.337 4.485 5.678 8.723 11.04 8.723 16.117s-4.237 10.44-8.723 16.117z"/><path d="M439.109 119.704l-25.522-7.221-14.757-22.04c-1.763-2.632-4.705-4.202-7.872-4.202s-6.11 1.571-7.872 4.202l-14.757 22.04-25.524 7.222c-3.048.863-5.452 3.178-6.43 6.19s-.392 6.297 1.566 8.783l16.403 20.843-1.018 26.497a9.456 9.456 0 003.896 8.031 9.46 9.46 0 008.839 1.228l24.895-9.158 24.893 9.157c2.973 1.096 6.276.636 8.839-1.225s4.021-4.862 3.899-8.029l-1.018-26.502 16.404-20.843a9.454 9.454 0 001.564-8.784 9.447 9.447 0 00-6.428-6.189zm-24.587 28.143a9.49 9.49 0 00-2.018 6.219l.778 20.284-19.053-7.009a9.486 9.486 0 00-6.543-.001l-19.055 7.01.779-20.291a9.503 9.503 0 00-2.023-6.217l-12.554-15.952 19.539-5.527a9.487 9.487 0 005.289-3.845l11.295-16.87 11.294 16.868a9.498 9.498 0 005.294 3.848l19.535 5.526z"/></svg>