<svg xmlns="http://www.w3.org/2000/svg" height="64" viewBox="0 0 512 512" width="64"><path d="M64 104h240v16H64z"/><path d="M32 392h448v16H32z" fill="#ffc20e"/><path d="M48 224V104H32v120a120.136 120.136 0 00120 120h112a119.268 119.268 0 0059.816-16H152A104.118 104.118 0 0148 224z"/><path d="M152 312h120v-56a7.977 7.977 0 01.239-1.94l8-32A8 8 0 01288 216h16v-80H64v88a88.1 88.1 0 0088 88zm88-96h16v16h-16zm0 32h16v16h-16zm0 32h16v16h-16zm-32-64h16v16h-16zm0 32h16v16h-16zm0 32h16v16h-16zm-32-64h16v16h-16zm0 32h16v16h-16zm0 32h16v16h-16zm-32-64h16v16h-16zm0 32h16v16h-16zm0 32h16v16h-16zM424 136h-24v16h24a40.045 40.045 0 0140 40v32a40.045 40.045 0 01-40 40h-30.006a135 135 0 01-6.065 16H424a56.063 56.063 0 0056-56v-32a56.063 56.063 0 00-56-56zM368 224a103.5 103.5 0 01-16 55.415v26.075A119.54 119.54 0 00384 224V104h-16zM352 136h-32v80h16a8 8 0 017.761 6.06l5.719 22.874A88.3 88.3 0 00352 224z"/><path d="M294.246 232L288 256.984V312h48v-55.016L329.754 232z" fill="#ffc20e"/><path d="M264 360H152a136.786 136.786 0 01-16-.946V376h144v-16.946a136.786 136.786 0 01-16 .946zM320 104h32v16h-32z"/></svg>