<svg xmlns="http://www.w3.org/2000/svg" width="64" height="64"><path fill="#FFF" d="M47 25h-5c-.3 0-.6-.2-.8-.5-1.8-2.7-4-4.9-7.2-5.5V7h-4v12c-3.1.6-5.4 2.8-7.2 5.5-.2.3-.5.5-.8.5H5v10h17c.3 0 .6.2.8.5 2.2 3.3 5 5.5 9.2 5.5s7-2.3 9.1-5.5c.2-.3.5-.5.8-.5h5c2.1 0 4 1.8 4 4v4h10v-4c.1-7.9-6-14-13.9-14zm6 35c0 1.5 1.6 3 3 3 1.5 0 3-1.5 3-3 0-1.4-3-6-3-6s-3 4.6-3 6z"/><path fill="#777" d="M56 52s-4 5.8-4 8 1.8 4 4 4 4-1.8 4-4-4-8-4-8zm0 10c-1.1 0-2-.9-2-2s2-5 2-5 2 3.9 2 5-.9 2-2 2z"/><path fill="#FFC20E" d="M1 37h4V23H1v14zm48 6v4h14v-4H49zM43 2c0-.6-1.4-1-2-1-.6 0-2 .4-2 1s-.4 1-1 1h-3c-.6 0-1-.4-1-1s-1.4-1-2-1-2 .4-2 1-.4 1-1 1h-3c-.6 0-1-.4-1-1s-1.4-1-2-1c-.6 0-2 .4-2 1s-.4 1-1 1l-3 1v3h30V3h-3c-.6 0-1-.4-1-1z"/><path fill="#323232" d="M63 42h-1v-3c0-8.3-6.7-15-15-15h-4.5c-1.9-2.8-4.3-4.8-7.5-5.6v-2L43.4 8H47c.6 0 1-.4 1-1V3c0-.6-.4-1-1-1h-3.2C43.4.8 42.3 0 41 0s-2.4.8-2.8 2h-3.4C34.4.8 33.3 0 32 0s-2.4.8-2.8 2h-3.4C25.4.8 24.3 0 23 0s-2.4.8-2.8 2H17c-.6 0-1 .4-1 1v4c0 .6.4 1 1 1h3.6l8.4 8.4v2c-3.2.8-5.6 2.9-7.5 5.6H6v-1c0-.6-.4-1-1-1H1c-.6 0-1 .4-1 1v14c0 .6.4 1 1 1h4c.6 0 1-.4 1-1v-1h15.5c2.5 3.6 5.8 6 10.5 6s8-2.4 10.5-6H47c1.7 0 3 1.3 3 3v3h-1c-.6 0-1 .4-1 1v4c0 .6.4 1 1 1h14c.6 0 1-.4 1-1v-4c0-.6-.4-1-1-1zM4 36H2V24h2v12zm31-22.4V8h5.6L35 13.6zM18 6V4h3c.6 0 1-.4 1-1s.4-1 1-1 1 .4 1 1 .4 1 1 1h5c.6 0 1-.4 1-1s.4-1 1-1 1 .4 1 1 .4 1 1 1h5c.6 0 1-.4 1-1s.4-1 1-1 1 .4 1 1 .4 1 1 1h3v2H18zm15 2v10.1c-.3 0-.7-.1-1-.1s-.7 0-1 .1V8h2zm-9.6 0H29v5.6L23.4 8zM47 34h-5c-.4 0-.7.2-.8.5-2.2 3.3-5 5.5-9.2 5.5s-7-2.3-9.2-5.5c-.2-.3-.5-.5-.8-.5H6v-8h16c.3 0 .6-.2.8-.5 2.2-3.3 5-5.5 9.2-5.5s7 2.2 9.2 5.5c.2.3.5.5.8.5h5c7.2 0 13 5.8 13 13v3h-8v-3c0-2.8-2.2-5-5-5zm15 12H50v-2h12v2z"/></svg>