<svg xmlns="http://www.w3.org/2000/svg" width="64" height="64"><path fill="#FFF" d="M52.6 3.8c-.1.1-.2.1-.4.2l-4 1H48c-.2 0-.4-.1-.6-.2l-3.6-2.7-3.6.9H40c-.1 0-.3 0-.4-.1l-4.5-1.8-3.6 2.7c-.1.1-.3.2-.5.2-.1 0-.2 0-.3-.1L28 3.1 23.4 5H23c-.3 0-.5-.1-.7-.3l-3.6-3.6L12.3 3H12c-.2 0-.3 0-.4-.1L8 1v62h48V1l-3.4 2.8z"/><path fill-rule="evenodd" clip-rule="evenodd" fill="#FFC20E" d="M50 44h-1c-1.7 0-3-1.3-3-3v-4c0-.6-.4-1-1-1s-1 .4-1 1v4c0 1.7-1.3 3-3 3h-1c-.6 0-1 .4-1 1s.4 1 1 1h1c1.7 0 3 1.3 3 3v4c0 .6.4 1 1 1s1-.4 1-1v-4c0-1.7 1.3-3 3-3h1c.6 0 1-.4 1-1s-.5-1-1-1zm-5 2c-.3-.4-.6-.7-1-1 .4-.3.7-.6 1-1 .3.4.6.7 1 1-.4.3-.7.6-1 1zM35 56c-.6 0-1 .4-1 1s.4 1 1 1 1-.4 1-1-.5-1-1-1zM24 39h-1c-1.7 0-3-1.3-3-3v-4c0-.6-.4-1-1-1s-1 .4-1 1v4c0 1.7-1.3 3-3 3h-1c-.6 0-1 .4-1 1s.4 1 1 1h1c1.7 0 3 1.3 3 3v4c0 .6.4 1 1 1s1-.4 1-1v-4c0-1.7 1.3-3 3-3h1c.6 0 1-.4 1-1s-.5-1-1-1zm-5 2c-.3-.4-.6-.7-1-1 .4-.3.7-.6 1-1 .3.4.6.7 1 1-.4.3-.7.6-1 1zm14-10c-.6 0-1 .4-1 1s.4 1 1 1 1-.4 1-1-.5-1-1-1zm-4 16c-.6 0-1 .4-1 1s.4 1 1 1 1-.4 1-1-.5-1-1-1z"/><path fill="#323232" d="M56 0c-.2 0-.4.1-.6.2l-3.8 2.9-3.3.8-3.6-2.7c-.3-.1-.5-.2-.7-.2h-.2l-3.7 1L35.4.1c-.1-.1-.3-.1-.4-.1-.2 0-.4.1-.6.2l-3.6 2.7-2.5-.8c-.1-.1-.2-.1-.3-.1-.1 0-.3 0-.4.1l-4.4 1.7L19.7.3c-.2-.2-.4-.3-.7-.3-.1 0-.2 0-.3.1L12.1 2 8.4.1C8.3 0 8.2 0 8 0c-.6 0-1 .4-1 1v62c0 .3.1.5.3.7s.4.3.7.3h48c.6 0 1-.4 1-1V1c0-.6-.4-1-1-1zm-1 62H9V2.6l2.6 1.3c.1.1.2.1.4.1.1 0 .2 0 .3-.1l6.4-1.8 3.6 3.6c.2.2.4.3.7.3.1 0 .3 0 .4-.1L28 4.1l2.7.9h.3c.2 0 .4-.1.6-.2l3.6-2.7 4.5 1.8c0 .1.2.1.3.1h.2l3.5-.9 3.6 2.7c.3.1.5.2.7.2h.2l4-1c.1 0 .2-.1.3-.2L55 3v59z"/></svg>